<?xml version="1.0" encoding="UTF-8"?>
<svg xmlns="http://www.w3.org/2000/svg" xmlns:xlink="http://www.w3.org/1999/xlink" width="375pt" height="374.999991pt" viewBox="0 0 375 374.999991" version="1.2">
<defs>
<clipPath id="clip1">
  <path d="M 42 16 L 323.21875 16 L 323.21875 312.089844 L 42 312.089844 Z M 42 16 "/>
</clipPath>
</defs>
<g id="surface1">
<path style=" stroke:none;fill-rule:nonzero;fill:rgb(13.328552%,47.059631%,24.308777%);fill-opacity:1;" d="M 174.421875 249.902344 C 119.746094 136.613281 52.523438 119.773438 52.488281 119.769531 C 52.5 119.796875 64.859375 187.914062 174.421875 249.902344 Z M 174.421875 249.902344 "/>
<path style=" stroke:none;fill-rule:nonzero;fill:rgb(13.328552%,47.059631%,24.308777%);fill-opacity:1;" d="M 83.765625 301.636719 C 83.785156 301.640625 121.839844 308.949219 176.320312 264.410156 C 106.140625 270.007812 83.777344 301.621094 83.765625 301.636719 Z M 83.765625 301.636719 "/>
<path style=" stroke:none;fill-rule:nonzero;fill:rgb(13.328552%,47.059631%,24.308777%);fill-opacity:1;" d="M 189.355469 264.402344 C 243.835938 308.949219 281.890625 301.636719 281.910156 301.628906 C 281.902344 301.621094 259.535156 270.007812 189.355469 264.402344 Z M 189.355469 264.402344 "/>
<g clip-path="url(#clip1)" clip-rule="nonzero">
<path style=" stroke:none;fill-rule:nonzero;fill:rgb(13.328552%,47.059631%,24.308777%);fill-opacity:1;" d="M 186.519531 255.804688 L 186.519531 250.101562 C 232.179688 92.660156 182.863281 16.292969 182.839844 16.253906 C 182.8125 16.292969 133.5 92.660156 179.160156 250.101562 L 179.160156 255.804688 C 93.5 206.984375 42.214844 225.417969 42.183594 225.425781 C 42.203125 225.445312 80.316406 264.65625 179.160156 258.1875 L 179.160156 428.257812 C 179.160156 430.28125 180.804688 431.925781 182.839844 431.925781 C 184.871094 431.925781 186.519531 430.28125 186.519531 428.257812 L 186.519531 258.1875 C 285.355469 264.648438 323.472656 225.445312 323.492188 225.425781 C 323.464844 225.421875 272.179688 206.984375 186.519531 255.804688 Z M 186.519531 255.804688 "/>
</g>
<path style=" stroke:none;fill-rule:nonzero;fill:rgb(13.328552%,47.059631%,24.308777%);fill-opacity:1;" d="M 313.1875 119.769531 C 313.152344 119.773438 245.929688 136.613281 191.257812 249.902344 C 300.816406 187.914062 313.183594 119.796875 313.1875 119.769531 Z M 313.1875 119.769531 "/>
<path style=" stroke:none;fill-rule:nonzero;fill:rgb(0%,0%,0%);fill-opacity:1;" d="M 122.941406 187.5 L 242.125 187.5 C 242.515625 187.5 242.898438 187.539062 243.277344 187.613281 C 243.65625 187.6875 244.023438 187.800781 244.382812 187.949219 C 244.738281 188.097656 245.078125 188.277344 245.402344 188.492188 C 245.722656 188.707031 246.019531 188.953125 246.292969 189.226562 C 246.566406 189.5 246.8125 189.796875 247.027344 190.121094 C 247.242188 190.441406 247.425781 190.78125 247.570312 191.136719 C 247.71875 191.496094 247.832031 191.863281 247.90625 192.242188 C 247.984375 192.625 248.019531 193.007812 248.019531 193.394531 C 248.019531 193.78125 247.984375 194.164062 247.90625 194.542969 C 247.832031 194.921875 247.71875 195.292969 247.570312 195.648438 C 247.425781 196.007812 247.242188 196.347656 247.027344 196.667969 C 246.8125 196.988281 246.566406 197.289062 246.292969 197.5625 C 246.019531 197.835938 245.722656 198.078125 245.402344 198.292969 C 245.078125 198.507812 244.738281 198.691406 244.382812 198.839844 C 244.023438 198.988281 243.65625 199.097656 243.277344 199.175781 C 242.898438 199.25 242.515625 199.289062 242.125 199.289062 L 122.941406 199.289062 C 122.550781 199.289062 122.167969 199.25 121.789062 199.175781 C 121.410156 199.097656 121.042969 198.988281 120.683594 198.839844 C 120.328125 198.691406 119.988281 198.507812 119.664062 198.292969 C 119.34375 198.078125 119.046875 197.835938 118.773438 197.5625 C 118.5 197.289062 118.253906 196.988281 118.039062 196.667969 C 117.824219 196.347656 117.640625 196.007812 117.496094 195.648438 C 117.347656 195.292969 117.234375 194.921875 117.160156 194.542969 C 117.082031 194.164062 117.046875 193.78125 117.046875 193.394531 C 117.046875 193.007812 117.082031 192.625 117.160156 192.242188 C 117.234375 191.863281 117.347656 191.496094 117.496094 191.136719 C 117.640625 190.78125 117.824219 190.441406 118.039062 190.121094 C 118.253906 189.796875 118.5 189.5 118.773438 189.226562 C 119.046875 188.953125 119.34375 188.707031 119.664062 188.492188 C 119.988281 188.277344 120.328125 188.097656 120.683594 187.949219 C 121.042969 187.800781 121.410156 187.6875 121.789062 187.613281 C 122.167969 187.539062 122.550781 187.5 122.941406 187.5 Z M 122.941406 187.5 "/>
<path style=" stroke:none;fill-rule:nonzero;fill:rgb(0%,0%,0%);fill-opacity:1;" d="M 122.941406 221.589844 L 242.125 221.589844 C 242.515625 221.589844 242.898438 221.628906 243.277344 221.703125 C 243.65625 221.777344 244.023438 221.890625 244.382812 222.039062 C 244.738281 222.1875 245.078125 222.367188 245.402344 222.582031 C 245.722656 222.796875 246.019531 223.042969 246.292969 223.316406 C 246.566406 223.589844 246.8125 223.886719 247.027344 224.210938 C 247.242188 224.53125 247.425781 224.871094 247.570312 225.230469 C 247.71875 225.585938 247.832031 225.953125 247.90625 226.335938 C 247.984375 226.714844 248.019531 227.097656 248.019531 227.484375 C 248.019531 227.871094 247.984375 228.253906 247.90625 228.632812 C 247.832031 229.011719 247.71875 229.382812 247.570312 229.738281 C 247.425781 230.097656 247.242188 230.4375 247.027344 230.757812 C 246.8125 231.082031 246.566406 231.378906 246.292969 231.652344 C 246.019531 231.925781 245.722656 232.167969 245.402344 232.386719 C 245.078125 232.601562 244.738281 232.78125 244.382812 232.929688 C 244.023438 233.078125 243.65625 233.1875 243.277344 233.265625 C 242.898438 233.339844 242.515625 233.378906 242.125 233.378906 L 122.941406 233.378906 C 122.550781 233.378906 122.167969 233.339844 121.789062 233.265625 C 121.410156 233.1875 121.042969 233.078125 120.683594 232.929688 C 120.328125 232.78125 119.988281 232.601562 119.664062 232.386719 C 119.34375 232.167969 119.046875 231.925781 118.773438 231.652344 C 118.5 231.378906 118.253906 231.082031 118.039062 230.757812 C 117.824219 230.4375 117.640625 230.097656 117.496094 229.738281 C 117.347656 229.382812 117.234375 229.011719 117.160156 228.632812 C 117.082031 228.253906 117.046875 227.871094 117.046875 227.484375 C 117.046875 227.097656 117.082031 226.714844 117.160156 226.335938 C 117.234375 225.953125 117.347656 225.585938 117.496094 225.230469 C 117.640625 224.871094 117.824219 224.53125 118.039062 224.210938 C 118.253906 223.886719 118.5 223.589844 118.773438 223.316406 C 119.046875 223.042969 119.34375 222.796875 119.664062 222.582031 C 119.988281 222.367188 120.328125 222.1875 120.683594 222.039062 C 121.042969 221.890625 121.410156 221.777344 121.789062 221.703125 C 122.167969 221.628906 122.550781 221.589844 122.941406 221.589844 Z M 122.941406 221.589844 "/>
<path style=" stroke:none;fill-rule:nonzero;fill:rgb(0%,0%,0%);fill-opacity:1;" d="M 122.941406 253.292969 L 242.125 253.292969 C 242.515625 253.292969 242.898438 253.332031 243.277344 253.40625 C 243.65625 253.480469 244.023438 253.59375 244.382812 253.742188 C 244.738281 253.890625 245.078125 254.070312 245.402344 254.285156 C 245.722656 254.5 246.019531 254.746094 246.292969 255.019531 C 246.566406 255.292969 246.8125 255.589844 247.027344 255.914062 C 247.242188 256.234375 247.425781 256.574219 247.570312 256.929688 C 247.71875 257.289062 247.832031 257.65625 247.90625 258.035156 C 247.984375 258.417969 248.019531 258.800781 248.019531 259.1875 C 248.019531 259.574219 247.984375 259.957031 247.90625 260.335938 C 247.832031 260.714844 247.71875 261.085938 247.570312 261.441406 C 247.425781 261.800781 247.242188 262.140625 247.027344 262.460938 C 246.8125 262.78125 246.566406 263.082031 246.292969 263.355469 C 246.019531 263.628906 245.722656 263.871094 245.402344 264.085938 C 245.078125 264.300781 244.738281 264.484375 244.382812 264.632812 C 244.023438 264.78125 243.65625 264.890625 243.277344 264.96875 C 242.898438 265.042969 242.515625 265.082031 242.125 265.082031 L 122.941406 265.082031 C 122.550781 265.082031 122.167969 265.042969 121.789062 264.96875 C 121.410156 264.890625 121.042969 264.78125 120.683594 264.632812 C 120.328125 264.484375 119.988281 264.300781 119.664062 264.085938 C 119.34375 263.871094 119.046875 263.628906 118.773438 263.355469 C 118.5 263.082031 118.253906 262.78125 118.039062 262.460938 C 117.824219 262.140625 117.640625 261.800781 117.496094 261.441406 C 117.347656 261.085938 117.234375 260.714844 117.160156 260.335938 C 117.082031 259.957031 117.046875 259.574219 117.046875 259.1875 C 117.046875 258.800781 117.082031 258.417969 117.160156 258.035156 C 117.234375 257.65625 117.347656 257.289062 117.496094 256.929688 C 117.640625 256.574219 117.824219 256.234375 118.039062 255.914062 C 118.253906 255.589844 118.5 255.292969 118.773438 255.019531 C 119.046875 254.746094 119.34375 254.5 119.664062 254.285156 C 119.988281 254.070312 120.328125 253.890625 120.683594 253.742188 C 121.042969 253.59375 121.410156 253.480469 121.789062 253.40625 C 122.167969 253.332031 122.550781 253.292969 122.941406 253.292969 Z M 122.941406 253.292969 "/>
</g>
</svg>
