<?xml version="1.0" encoding="UTF-8"?>
<!DOCTYPE svg PUBLIC "-//W3C//DTD SVG 1.1//EN"
  "http://www.w3.org/Graphics/SVG/1.1/DTD/svg11.dtd">
<!-- Created with Inkpad (http://www.taptrix.com/) --><svg xmlns:inkpad="http://taptrix.com/inkpad/svg_extensions" height="298pt" xmlns:xlink="http://www.w3.org/1999/xlink" xmlns="http://www.w3.org/2000/svg" width="281pt" version="1.1" viewBox="0,0,281,298">
<defs>
<path d="M0+3L281.219+3L281.219+299.09L0+299.09L0+3ZM0+3" id="Mask"/>
</defs>
<g id="surface1" inkpad:layerName="surface1">
<path d="M132.422+236.902C77.7461+123.613+10.5234+106.773+10.4883+106.77C10.5+106.797+22.8594+174.914+132.422+236.902ZM132.422+236.902" opacity="1" fill="#22783e"/>
<path d="M41.7656+288.637C41.7852+288.641+79.8398+295.949+134.32+251.41C64.1406+257.008+41.7773+288.621+41.7656+288.637ZM41.7656+288.637" opacity="1" fill="#22783e"/>
<path d="M147.355+251.402C201.836+295.949+239.891+288.637+239.91+288.629C239.902+288.621+217.535+257.008+147.355+251.402ZM147.355+251.402" opacity="1" fill="#22783e"/>
<g opacity="1" inkpad:mask="#Mask">
<clipPath id="ClipPath">
<use xlink:href="#Mask" fill="none" overflow="visible"/>
</clipPath>
<g clip-path="url(#ClipPath)">
<path d="M144.52+242.805L144.52+237.102C190.18+79.6602+140.863+3.29297+140.84+3.25391C140.812+3.29297+91.5+79.6602+137.16+237.102L137.16+242.805C51.5+193.984+0.214844+212.418+0.183594+212.426C0.203125+212.445+38.3164+251.656+137.16+245.188L137.16+415.258C137.16+417.281+138.805+418.926+140.84+418.926C142.871+418.926+144.52+417.281+144.52+415.258L144.52+245.188C243.355+251.648+281.473+212.445+281.492+212.426C281.465+212.422+230.18+193.984+144.52+242.805ZM144.52+242.805" opacity="1" fill="#22783e"/>
</g>
</g>
<path d="M271.188+106.77C271.152+106.773+203.93+123.613+149.258+236.902C258.816+174.914+271.184+106.797+271.188+106.77ZM271.188+106.77" opacity="1" fill="#22783e"/>
<path stroke="#000000" stroke-opacity="0.502" stroke-width="10" d="M85.5352+171.5L195.535+171.5M85.5352+211.5L195.535+211.5M85.5352+251.5L195.535+251.5" fill="#000000" stroke-linecap="round" opacity="1" stroke-linejoin="round"/>
</g>
</svg>
